<?xml version="1.0" encoding="UTF-8"?>
<svg version="1.1" xmlns="http://www.w3.org/2000/svg" width="106" height="108">
<path d="M0 0 C34.98 0 69.96 0 106 0 C106 35.64 106 71.28 106 108 C71.02 108 36.04 108 0 108 C0 72.36 0 36.72 0 0 Z " fill="#4C9F55" transform="translate(0,0)"/>
<path d="M0 0 C3.11094158 3.56620133 5.13797834 7.26241842 7.3125 11.4375 C11.28889892 18.74210743 17.31945686 24.72865755 25 28 C30.93138492 28.2578863 35.54364429 24.56664546 40 21 C45.45125749 15.93247492 48.84773023 10.02600865 52.2265625 3.44140625 C54 1 54 1 56.53515625 0 C59 0 59 0 61.8125 2.4375 C62.8953125 3.7059375 62.8953125 3.7059375 64 5 C60.14040674 16.2671356 54.04273781 25.14224913 44.75 32.625 C41.79262734 34.76996366 41.79262734 34.76996366 41 38 C41.58136719 38.268125 42.16273437 38.53625 42.76171875 38.8125 C52.49971455 43.97890615 59.3209761 54.05207203 63.484375 64.01953125 C64 66 64 66 63.3125 69 C62 71 62 71 61 72 C58.1875 72.375 58.1875 72.375 55 72 C52.06279682 68.77370202 49.82393295 65.21856874 47.5625 61.5 C43.05652281 54.3687183 36.79443285 47.05336698 28.5859375 44.14453125 C23.26359948 43.84705919 19.04917505 47.89602143 15 51 C9.48554214 55.98217428 5.97903029 62.11604214 2.3828125 68.55859375 C1 71 1 71 0 72 C-5.21848739 72.45378151 -5.21848739 72.45378151 -7.9375 70.875 C-9.54240331 68.04281769 -8.70175427 66.11806492 -8 63 C-3.39485541 51.8818652 4.76912973 43.46325681 14 36 C13.3709375 35.53851563 12.741875 35.07703125 12.09375 34.6015625 C2.8962816 27.59264833 -5.10991553 19.12788587 -9 8 C-9.32613422 3.52543847 -9.32613422 3.52543847 -7.875 1.1875 C-4.97157125 -0.65133821 -3.36422788 -0.67284558 0 0 Z " fill="#F0F9F4" transform="translate(25,17)"/>
<path d="M0 0 C34.98 0 69.96 0 106 0 C106 35.64 106 71.28 106 108 C71.02 108 36.04 108 0 108 C0 100.74 0 93.48 0 86 C1.57524807 88.36287211 2.54376952 90.2508932 3.625 92.8125 C5.96429719 97.59702483 9.47585329 100.31523942 14 103 C17.39729484 104.13243161 20.04065079 104.15478227 23.62353516 104.19287109 C24.29226654 104.20104858 24.96099792 104.20922607 25.6499939 104.21765137 C27.86300781 104.24245867 30.07595754 104.25901351 32.2890625 104.2734375 C33.04735729 104.27876118 33.80565208 104.28408485 34.58692551 104.28956985 C38.60432676 104.31628723 42.62169717 104.33566251 46.63916016 104.35009766 C49.95259376 104.36340918 53.26540746 104.39121099 56.57861328 104.43212891 C60.58922459 104.481653 64.59927592 104.5062431 68.6101799 104.51332474 C70.13231903 104.52000608 71.65444719 104.53514636 73.17641068 104.55921555 C81.76878515 104.687296 89.01459726 104.58469789 96 99 C101.37562488 93.62437512 103.37299727 87.52718123 103.38818359 80.07421875 C103.39344055 79.42119781 103.39869751 78.76817688 103.40411377 78.09536743 C103.41720508 75.95916071 103.40861529 73.82371292 103.3984375 71.6875 C103.40046138 70.18969583 103.40337543 68.69189262 103.40713501 67.1940918 C103.41154362 64.06386886 103.40517485 60.93390376 103.39111328 57.80371094 C103.374022 53.80577568 103.38387109 49.80844475 103.40183067 45.81053162 C103.41270833 42.7202912 103.40920402 39.63019236 103.4014473 36.53994751 C103.39945627 35.06645637 103.40186572 33.59295208 103.40888596 32.11947632 C103.4165667 30.05456845 103.40480597 27.99061839 103.38818359 25.92578125 C103.38460342 24.16874878 103.38460342 24.16874878 103.38095093 22.3762207 C102.70739052 16.40671533 100.27735375 11.27735375 96 7 C90.2810956 3.56171132 85.34219977 1.87993625 78.63598633 1.82299805 C77.32064407 1.81016281 76.00530182 1.79732758 74.65010071 1.78410339 C73.21074807 1.77593394 71.77139115 1.7684906 70.33203125 1.76171875 C69.60558599 1.75764322 68.87914074 1.7535677 68.13068199 1.74936867 C64.2830064 1.72851884 60.43536632 1.71421442 56.58764648 1.70483398 C52.62776281 1.69379266 48.66844464 1.65941677 44.70876026 1.61966228 C41.65196239 1.59341861 38.59529744 1.58513517 35.53839684 1.58155251 C34.07964969 1.57670376 32.6209078 1.56513888 31.1622715 1.54651451 C21.96702791 1.43643691 15.02587231 1.67459769 7.7578125 7.9296875 C4.51415432 11.7941415 2.13527825 14.9543189 1 20 C0.67 20 0.34 20 0 20 C0 13.4 0 6.8 0 0 Z " fill="#0B120D" transform="translate(0,0)"/>
<path d="M0 0 C1 3 1 3 -0.1875 5.453125 C-5.95444838 14.35212293 -11.81276735 22.04870204 -22 26 C-26.99526625 26.30583263 -30.15732052 23.87939843 -33.91796875 20.859375 C-40.74132092 14.76572466 -45.35773429 8.38771766 -49 0 C-31.89430457 -3.2582277 -17.08138434 -3.47417987 0 0 Z " fill="#51A85A" transform="translate(76,20)"/>
<path d="M0 0 C25.41 0 50.82 0 77 0 C77 0.33 77 0.66 77 1 C76.2786084 1.00364563 75.5572168 1.00729126 74.81396484 1.01104736 C67.9879193 1.04904443 61.16226239 1.10602921 54.33656311 1.18390274 C50.82803584 1.22327316 47.3197556 1.25551207 43.81103516 1.27099609 C39.76945442 1.28915344 35.72879476 1.33914953 31.6875 1.390625 C29.81360596 1.39246796 29.81360596 1.39246796 27.90185547 1.39434814 C19.7231743 1.53094786 14.12109684 2.45327206 7.7578125 7.9296875 C4.51415432 11.7941415 2.13527825 14.9543189 1 20 C0.67 20 0.34 20 0 20 C0 13.4 0 6.8 0 0 Z " fill="#080909" transform="translate(0,0)"/>
<path d="M0 0 C0.495 1.485 0.495 1.485 1 3 C0.34 3.66 -0.32 4.32 -1 5 C-1 4.34 -1 3.68 -1 3 C-7.78175796 1.41258771 -14.16569979 0.67648858 -21.125 0.75 C-22.02500732 0.75386719 -22.92501465 0.75773437 -23.85229492 0.76171875 C-32.00705169 0.86555507 -39.94843104 1.72450393 -48 3 C-48.33 2.01 -48.66 1.02 -49 0 C-31.89430457 -3.2582277 -17.08138434 -3.47417987 0 0 Z " fill="#6BB873" transform="translate(76,20)"/>
<path d="M0 0 C0.66 0.33 1.32 0.66 2 1 C2 1.99 2 2.98 2 4 C2.7425 4.12375 3.485 4.2475 4.25 4.375 C6.80141485 4.95486701 8.7267573 5.73708739 11 7 C11 7.66 11 8.32 11 9 C7.0507432 8.44894091 3.65079826 7.61064629 0 6 C-1.65 8.97 -3.3 11.94 -5 15 C-5.99 15 -6.98 15 -8 15 C-7.38511719 14.00419922 -7.38511719 14.00419922 -6.7578125 12.98828125 C-6.21898438 12.10527344 -5.68015625 11.22226562 -5.125 10.3125 C-4.59132813 9.44238281 -4.05765625 8.57226562 -3.5078125 7.67578125 C-2.09359186 5.16608918 -1.00105211 2.69700931 0 0 Z " fill="#65A76B" transform="translate(88,23)"/>
<path d="M0 0 C1.2065625 0.0309375 1.2065625 0.0309375 2.4375 0.0625 C3.0625 2.4375 3.0625 2.4375 3.4375 5.0625 C2.7775 5.7225 2.1175 6.3825 1.4375 7.0625 C-1.1875 6.6875 -1.1875 6.6875 -3.5625 6.0625 C-3.605221 4.39638095 -3.60313832 2.72867115 -3.5625 1.0625 C-2.5625 0.0625 -2.5625 0.0625 0 0 Z " fill="#3B6144" transform="translate(52.5625,49.9375)"/>
<path d="M0 0 C0.66 0.99 1.32 1.98 2 3 C0.40233897 3.86627399 -1.20339944 4.71766465 -2.8125 5.5625 C-3.70582031 6.03816406 -4.59914063 6.51382812 -5.51953125 7.00390625 C-8 8 -8 8 -11 7 C-7.7129243 3.18699218 -4.60272162 1.77027754 0 0 Z " fill="#6DBC75" transform="translate(16,25)"/>
<path d="M0 0 C-1.38188453 3.21043882 -2.92421903 5.04936365 -5.625 7.25 C-6.57246094 8.03117187 -6.57246094 8.03117187 -7.5390625 8.828125 C-8.02117188 9.21484375 -8.50328125 9.6015625 -9 10 C-8.42110619 6.71245489 -7.45171589 5.06327505 -5.0625 2.75 C-4.53785156 2.22921875 -4.01320313 1.7084375 -3.47265625 1.171875 C-2 0 -2 0 0 0 Z " fill="#5FA266" transform="translate(71,31)"/>
<path d="M0 0 C2.31 0.33 4.62 0.66 7 1 C7.33 1.99 7.66 2.98 8 4 C7.34 4.66 6.68 5.32 6 6 C6 5.34 6 4.68 6 4 C3.69 3.67 1.38 3.34 -1 3 C-0.67 2.01 -0.34 1.02 0 0 Z " fill="#70B377" transform="translate(69,19)"/>
</svg>
