<?xml version="1.0" encoding="UTF-8"?>
<svg version="1.1" xmlns="http://www.w3.org/2000/svg" width="68" height="72">
<path d="M0 0 C22.44 0 44.88 0 68 0 C68 23.76 68 47.52 68 72 C45.56 72 23.12 72 0 72 C0 48.24 0 24.48 0 0 Z " fill="#4B9D54" transform="translate(0,0)"/>
<path d="M0 0 C22.44 0 44.88 0 68 0 C68 23.76 68 47.52 68 72 C45.56 72 23.12 72 0 72 C0 48.24 0 24.48 0 0 Z M4.59570312 12.19165039 C2.51433988 16.36942807 2.42173627 20.33580926 2.46875 24.93359375 C2.4649231 25.77036148 2.46109619 26.60712921 2.45715332 27.46925354 C2.45444484 29.22992158 2.46173119 30.99063059 2.47851562 32.7512207 C2.49991498 35.4268694 2.47869321 38.09982522 2.453125 40.77539062 C2.45576899 42.49479752 2.46089545 44.21420276 2.46875 45.93359375 C2.46065308 46.72342148 2.45255615 47.51324921 2.44421387 48.32701111 C2.53727535 53.91876467 3.58434761 58.47019538 7 63 C11.7266899 67.29790534 16.86857391 67.58245127 23.00390625 67.49609375 C24.26617287 67.4982766 24.26617287 67.4982766 25.55393982 67.50050354 C27.3230233 67.49885206 29.09212228 67.48737544 30.86108398 67.46655273 C33.5584042 67.43754405 36.25376185 67.44597002 38.95117188 67.45898438 C40.67709282 67.4527474 42.4030076 67.44435677 44.12890625 67.43359375 C45.3291317 67.43799721 45.3291317 67.43799721 46.55360413 67.44248962 C52.49452338 67.34304465 56.59067333 66.00777223 61.25 62.125 C65.29688132 57.21092982 65.31911047 52.31513071 65.3359375 46.2265625 C65.3425943 45.3845932 65.3492511 44.5426239 65.35610962 43.67514038 C65.3662093 41.89835791 65.37092747 40.12153771 65.37060547 38.34472656 C65.37497474 35.64063356 65.41131035 32.93817917 65.44921875 30.234375 C65.45508846 28.50260971 65.45905682 26.77083672 65.4609375 25.0390625 C65.47530853 24.23779938 65.48967957 23.43653625 65.50448608 22.61099243 C65.46145107 17.26669179 64.68668359 13.04750654 61 9 C55.71452847 5.01528228 50.37709513 4.40269441 43.93359375 4.46875 C43.09586929 4.4649231 42.25814484 4.46109619 41.39503479 4.45715332 C39.63614693 4.45444862 37.87721784 4.46170811 36.1184082 4.47851562 C33.44065048 4.49997475 30.76556687 4.47865239 28.08789062 4.453125 C26.36978581 4.45576801 24.65168263 4.46089243 22.93359375 4.46875 C22.14174179 4.46065308 21.34988983 4.45255615 20.53404236 4.44421387 C13.43260349 4.56289427 9.0234319 6.31393935 4.59570312 12.19165039 Z " fill="#070808" transform="translate(0,0)"/>
<path d="M0 0 C2.3828125 0.17578125 2.3828125 0.17578125 5 1 C6.5546875 2.85546875 6.5546875 2.85546875 7.875 5.1875 C10.5187136 9.43511183 13.40512431 13.71744836 18 16 C23.79609566 15.62339157 27.17704483 12.0541823 31 8 C32.8632928 5.42901426 34.49136761 2.79242054 36 0 C38.475 0.495 38.475 0.495 41 1 C40.68620543 7.11899406 37.7016229 11.33312136 34 16 C31.125 18.5625 31.125 18.5625 29 20 C29.77273304 23.22750131 29.77273304 23.22750131 32.75 25.1875 C36.47480492 28.16554451 38.9887811 31.68153863 41 36 C41.3125 39 41.3125 39 41 41 C38.525 41.495 38.525 41.495 36 42 C35.36384766 41.02160156 35.36384766 41.02160156 34.71484375 40.0234375 C29.49665327 31.85851505 29.49665327 31.85851505 22 26 C16.2013443 26.38657705 12.82660385 29.94194834 9 34 C7.1367072 36.57098574 5.50863239 39.20757946 4 42 C2.35 41.67 0.7 41.34 -1 41 C-0.68620543 34.88100594 2.2983771 30.66687864 6 26 C8.875 23.4375 8.875 23.4375 11 22 C10.22726696 18.77249869 10.22726696 18.77249869 7.25 16.8125 C2.82806809 13.27709067 -0.64732978 8.76258336 -1.375 3.0625 C-1 1 -1 1 0 0 Z " fill="#E4F0E9" transform="translate(14,15)"/>
<path d="M0 0 C2.3828125 0.17578125 2.3828125 0.17578125 5 1 C6.5546875 2.85546875 6.5546875 2.85546875 7.875 5.1875 C11.34987192 10.82631025 15.53712629 14.3580842 21 18 C20.34 18.33 19.68 18.66 19 19 C19.33 20.98 19.66 22.96 20 25 C19.49210937 25.3403125 18.98421875 25.680625 18.4609375 26.03125 C12.13019557 30.48885106 8.25124998 35.62312503 4 42 C2.35 41.67 0.7 41.34 -1 41 C-0.68620543 34.88100594 2.2983771 30.66687864 6 26 C8.875 23.4375 8.875 23.4375 11 22 C10.22726696 18.77249869 10.22726696 18.77249869 7.25 16.8125 C2.82806809 13.27709067 -0.64732978 8.76258336 -1.375 3.0625 C-1 1 -1 1 0 0 Z " fill="#F4FAF6" transform="translate(14,15)"/>
<path d="M0 0 C1.22589844 -0.00386719 1.22589844 -0.00386719 2.4765625 -0.0078125 C3.3221875 -0.00007812 4.1678125 0.00765625 5.0390625 0.015625 C5.87695312 0.00789062 6.71484375 0.00015625 7.578125 -0.0078125 C12.3370368 0.00715263 16.19406177 0.43103187 20.6640625 2.265625 C17.49558422 8.73460148 13.15007779 14.51304989 6.234375 17.21484375 C2.48447582 17.2889299 1.17825777 15.71680517 -1.5234375 13.203125 C-2.38324219 12.42839844 -3.24304688 11.65367188 -4.12890625 10.85546875 C-6.51352398 8.05723591 -7.41855562 5.79677647 -8.3359375 2.265625 C-5.43071952 0.61323612 -3.33471558 0.01020906 0 0 Z " fill="#57AB60" transform="translate(28.3359375,14.734375)"/>
<path d="M0 0 C2.31 0.66 4.62 1.32 7 2 C7 2.66 7 3.32 7 4 C6.2575 3.79375 5.515 3.5875 4.75 3.375 C1.67669159 2.95591249 0.57213134 3.38050989 -2 5 C-1.34 3.35 -0.68 1.7 0 0 Z " fill="#60A567" transform="translate(54,20)"/>
</svg>
